<?xml version="1.0" encoding="utf-8"?>
<!-- Generator: Adobe Illustrator 21.0.0, SVG Export Plug-In . SVG Version: 6.00 Build 0)  -->
<svg version="1.1" id="Layer_1" xmlns="http://www.w3.org/2000/svg" xmlns:xlink="http://www.w3.org/1999/xlink" x="0px" y="0px"
	 viewBox="0 0 397 135" style="enable-background:new 0 0 397 135;" xml:space="preserve">
<style type="text/css">
	.st0{fill:#E92327;}
	.st1{fill:#FFFFFF;}
	.st2{fill:#3975BB;}
</style>
<g>
	<g>
		<path class="st0" d="M228.4,57.3c0.6,0,1.1-0.6,1.1-1.2V21.8c0-0.7-0.5-1.2-1.1-1.2h-6.1c-0.6,0-1.1,0.6-1.1,1.2v34.2
			c0,0.7,0.5,1.2,1.1,1.2H228.4L228.4,57.3z"/>
		<path class="st0" d="M267.7,20.6h-5.9c-0.6,0-1.1,0.6-1.1,1.2v14.3h-12.3V21.8c0-0.7-0.5-1.2-1.1-1.2h-5.9c-0.6,0-1.1,0.6-1.1,1.2
			v34.2c0,0.7,0.5,1.2,1.1,1.2h5.9c0.6,0,1.1-0.6,1.1-1.2V40h12.3v16.1c0,0.7,0.5,1.2,1.1,1.2h5.9c0.6,0,1.1-0.6,1.1-1.2V21.8
			C268.8,21.2,268.3,20.6,267.7,20.6L267.7,20.6z"/>
		<path class="st0" d="M163.6,20.6H149c-0.6,0-1.1,0.6-1.1,1.2v34.2c0,0.7,0.5,1.2,1.1,1.2h14.5c8.5,0,15.2-5.2,15.2-18.4
			C178.6,25.9,172,20.6,163.6,20.6L163.6,20.6z M161.5,53.4H156V24.5h5.5c6.6,0,8.7,4.4,8.7,14.4C170.2,48.9,168.2,53.4,161.5,53.4
			L161.5,53.4z"/>
		<path class="st0" d="M214.9,56.1L203,21.8c-0.3-0.7-0.9-1.2-1.5-1.2h-6.1c-0.3,0-0.7,0.3-0.8,0.7l-11.9,35.4
			c-0.1,0.4,0,0.7,0.3,0.7h3.7c0.4,0,0.7-0.3,0.8-0.7l3-9h12.8l2.8,8.4c0.3,0.7,0.9,1.2,1.5,1.2l6.5,0
			C214.7,57.3,215.1,56.8,214.9,56.1L214.9,56.1z M191.7,43.7l5.2-15.8l5.2,15.8H191.7L191.7,43.7z"/>
		<path class="st0" d="M306.4,56.1l-11.9-34.2c-0.2-0.7-0.9-1.3-1.5-1.3l-6,0c-0.3,0-0.7,0.3-0.8,0.7l-11.9,35.4
			c-0.1,0.4,0.1,0.7,0.4,0.7h3.6c0.3,0,0.7-0.3,0.8-0.7l3-9h12.9l2.7,8.4c0.2,0.7,0.9,1.2,1.5,1.2h6.5
			C306.3,57.3,306.7,56.8,306.4,56.1L306.4,56.1z M283.3,43.7l5.1-15.8l5.2,15.8H283.3L283.3,43.7z"/>
		<path class="st0" d="M331.8,20.6h-27.4c-0.4,0-0.6,0.3-0.6,0.7v2.7c0,0.4,0.3,0.7,0.6,0.7h9.8v31.5c0,0.7,0.5,1.2,1.1,1.2h5.9
			c0.6,0,1.1-0.6,1.1-1.2V24.6h9.5c0.4,0,0.7-0.3,0.7-0.7v-2.7C332.5,20.9,332.2,20.6,331.8,20.6L331.8,20.6z"/>
		<path class="st0" d="M384.7,45.2v-24c0-0.4,0.3-0.7,0.6-0.7h3.6c0.3,0,0.6,0.3,0.6,0.7v22.8c0,2.1,0,2.7,0,4
			c-0.5,7.3-5.1,9.6-12.6,9.6c-8.9,0-13.1-5-13.9-9.6c-0.3-1.8-0.3-3.6-0.3-5.1V21.8c0-0.7,0.5-1.2,1.1-1.2h5.8
			c0.6,0,1.1,0.6,1.1,1.2c0,0,0,23.9,0,23.9c0,0.9,0,2,0.1,3.1c0.4,2,1.8,5.3,7,5.3c4.6,0,6.9-2.7,6.9-6.1
			C384.7,47,384.7,45.8,384.7,45.2L384.7,45.2z"/>
		<path class="st0" d="M353.8,26.3c0.4,0.2,0.5-0.1,0.5-0.5v-3.2c0-0.4-0.2-0.6-0.6-0.8c0,0-0.7-0.4-2.5-0.9
			c-1.4-0.4-3.6-0.7-5.8-0.7c-5.5,0-8,1.8-9.5,3.9c-1.5,2.1-2.1,4.6-1.6,7.4c0.9,4.7,4.6,7.6,8.4,10.5c3,2.2,5.8,3.9,6.8,6.8
			c0.4,1.2,0.3,3-0.8,3.9c-1.1,1-2.3,1.4-4.3,1.4c-2.2,0-5.1-0.5-8.1-1.9c-0.5-0.3-1.1-0.6-1.1-0.6c-0.3-0.1-0.6,0-0.6,0.4v3.3
			c0,0.4,0.2,0.7,0.6,0.8c0,0,0.4,0.2,0.8,0.3c2.5,0.9,5.3,1.3,8.5,1.3c5.3,0,8.2-1.9,9.7-3.6c1.7-2,2.6-4.8,1.9-8.3
			c-1-5.4-5.6-8.4-9.2-11c-2.7-1.9-5.5-3.8-6.1-6c-0.5-1.7,0.1-2.8,0.6-3.3c0.7-1,2.3-1.7,4.4-1.7c1.9,0,3.8,0.4,5.9,1.4
			C352.1,25.3,352.9,25.8,353.8,26.3L353.8,26.3z"/>
	</g>
	<polygon class="st0" points="4.3,74.4 123.3,74.4 123.3,4.4 4.3,4.4 4.3,74.4 	"/>
	<path class="st1" d="M40.3,25c22.8,0,54.8,2.2,70,8.3c1.4,0.6,2.5,1.1,2.5,2.1c0,1.4-3.1,2.4-6,3.3c-11.2,3.5-31.3,7.6-60.7,9.7
		L18.8,21.3c-2.7,0.1-4.9,0.1-6.5,0.2l28.2,28.2l-7.6,11.1c45.5-7.2,66.1-14.4,75.3-18.6c2-0.9,7.6-3.4,7.6-6.7c0-2-1.9-3.2-4.4-4.3
		c-9.4-4-25.1-6.7-40.7-8c-16.1-1.6-37.7-2-49.6-1.9l25.4,25.4c5-0.4,9.7-0.8,14.2-1.3L40.3,25L40.3,25z"/>
</g>
<g>
	<path class="st2" d="M6,94.5c2.2-0.5,4.3-0.7,6.5-0.4c2.1,0.3,4,0.9,5.7,1.9c1.7,1.1,3.3,2.3,4.7,3.9c1.4,1.5,2.5,3.1,3.4,4.8
		c0.8,1.7,1.5,3.4,1.8,5.1c0.4,1.7,0.4,3.4,0.2,5.1c-0.3,1.7-0.9,3.1-1.8,4.4c-0.5,0.7-1.3,1.4-2.3,2.2c-1.1,0.8-2.2,1.5-3.5,2.1
		c-1.3,0.6-2.6,1.2-4,1.8c-1.4,0.5-2.7,0.9-3.9,1.2c-1.2,0.3-2.2,0.4-3.1,0.4c-0.9,0-1.4-0.2-1.7-0.6c-0.4-0.6-1.1-5-2.3-13
		c-1.1-8-1.7-13.1-1.7-15.2c0-1,0.2-1.8,0.5-2.5C4.9,95,5.4,94.6,6,94.5z M18.2,100.7c-1.5-1.7-3.5-2.5-6.1-2.5c-0.7,0-1.2,0-1.5,0
		c-0.4,0-0.7,0.1-1,0.1c-0.3,0.1-0.5,0.2-0.6,0.3c-0.1,0.1-0.2,0.3-0.3,0.6c-0.1,0.3-0.1,0.5,0,0.8c0,0.3,0.1,0.7,0.2,1.2
		c0.4,2.1,0.8,5.3,1.3,9.8c0.2,1.6,0.3,2.9,0.4,3.9c0.1,1,0.3,2,0.4,2.8c0.2,0.8,0.3,1.5,0.5,2c0.2,0.5,0.4,0.9,0.6,1.2
		c0.2,0.3,0.5,0.5,0.7,0.6c0.2,0.1,0.6,0.1,0.9,0.1c1.1,0,2.3-0.4,3.6-1.1c1.3-0.7,2.5-1.7,3.6-2.9c1.1-1.2,1.8-2.3,2.2-3.5
		c0.6-2,0.5-4.1-0.3-6.4C22,105.5,20.4,103.2,18.2,100.7z"/>
	<path class="st2" d="M33.4,104.2c4-3.4,8-3.2,11.9,0.7c1.2,1.1,2,2.3,2.5,3.4c0.5,1.1,0.8,2.3,0.8,3.7c0,1.2,0.2,2.4,0.7,3.6
		c0.4,1.2,1,2.1,1.7,2.8c0.7,0.7,1.4,1.1,2.2,1.1c0.6,0,0.9,0.3,0.9,1c0.1,0.7-0.1,1.4-0.6,2c-0.3,0.3-0.6,0.5-0.9,0.7
		c-0.4,0.2-1.1,0.1-1.9,0c-0.9-0.2-1.7-0.4-2.4-0.8c-1.1-0.6-2-0.8-2.7-0.8c-0.7,0-1.6,0.3-2.7,0.9c-2.1,1.1-4,1.6-5.7,1.4
		c-1.7-0.2-3.4-1.1-4.9-2.7c-0.5-0.6-1-1-1.3-1.4c-0.3-0.4-0.6-0.8-0.8-1.3c-0.2-0.4-0.4-1-0.4-1.5c-0.1-0.6-0.1-1.2-0.1-1.9
		c0-0.7,0.1-1.5,0.2-2.6c0.2-2.2,0.5-3.9,1-5.1C31.4,106.2,32.3,105.2,33.4,104.2z M42.4,110.9c-0.3-1.1-0.6-2-1-2.7
		c-0.4-0.7-0.9-1.3-1.3-1.6c-0.5-0.3-1-0.4-1.5-0.4c-0.5,0.1-1,0.3-1.5,0.7c-0.5,0.4-0.9,1.1-1.4,1.9c-0.4,0.8-0.8,1.8-1.1,3
		c-0.3,1-0.3,2-0.2,2.9c0.1,0.9,0.4,1.8,0.8,2.5c0.4,0.7,0.9,1.3,1.5,1.7c0.6,0.4,1.3,0.5,2.1,0.4c1.8-0.3,3-1.1,3.6-2.5
		C43,115.3,43,113.3,42.4,110.9z"/>
	<path class="st2" d="M55.8,96.1c0.3-0.5,0.8-0.9,1.5-1c0.7-0.1,1.3,0,2,0.3c0.6,0.3,1.1,0.8,1.2,1.4c0.1,0.4,0.1,0.8-0.2,1.2
		c-0.3,0.4-0.7,0.7-1.2,0.8c-0.5,0.2-1,0.3-1.6,0.2c-0.6,0-1-0.2-1.4-0.6c-0.3-0.3-0.5-0.7-0.6-1.1C55.5,96.9,55.6,96.5,55.8,96.1z
		 M56.5,113.3c-0.1-1.2-0.1-2.2-0.1-3.1c0-0.8,0-1.6,0-2.2c0-0.7,0.1-1.2,0.1-1.5c0.1-0.4,0.1-0.7,0.3-0.9c0.1-0.2,0.3-0.4,0.4-0.5
		c0.2-0.1,0.4-0.1,0.6-0.1c0.4,0,0.8,0,1.1,0.1c0.3,0.1,0.6,0.2,0.8,0.5c0.3,0.3,0.5,0.6,0.6,1c0.2,0.4,0.3,1,0.5,1.7
		c0.2,0.8,0.3,1.6,0.5,2.5c0.1,0.9,0.3,2.1,0.5,3.6c0.3,2.8,0.5,4.8,0.4,6c-0.1,1.2-0.4,2.1-1.1,2.6c-1.8,1.5-3.1,0.5-3.8-3
		C56.9,118.4,56.7,116.2,56.5,113.3z"/>
	<path class="st2" d="M63.7,91.6c0.3-0.6,0.8-0.9,1.4-1.1c0.6-0.1,1.2,0,1.7,0.3c0.6,0.3,1,0.8,1.2,1.4c0.2,0.5,0.3,1.4,0.5,2.7
		c0.1,1.3,0.2,2.7,0.2,4.1c0,0.6,0,1.2,0,1.6c0,0.4,0,0.8,0.1,1.2c0,0.4,0.1,0.7,0.1,0.9c0,0.2,0.1,0.4,0.2,0.5
		c0.1,0.2,0.2,0.3,0.3,0.3c0.1,0,0.2,0.1,0.4,0.1c0.2,0,0.4,0,0.6-0.1c0.2,0,0.4-0.1,0.8-0.2c1.3-0.4,2.4-0.7,3.3-0.9
		c0.9-0.2,1.8-0.4,2.6-0.5c0.8-0.1,1.5-0.1,2,0c0.5,0.1,1,0.3,1.5,0.6c0.5,0.3,0.9,0.7,1.1,1.1c0.3,0.5,0.5,1.1,0.8,1.8
		c0.3,0.8,0.5,1.6,0.6,2.5c0.2,0.9,0.3,2,0.5,3.3c0.4,3.7,0.9,6.8,1.4,9.2c0.1,0.7,0.2,1.2,0.3,1.6c0,0.4,0,0.7,0,1
		c0,0.3-0.1,0.5-0.3,0.6c-0.2,0.1-0.4,0.2-0.6,0.3c-0.2,0.1-0.6,0.1-1,0.1c-1.5,0-2.7-0.9-3.6-2.7c-0.9-1.8-1.3-4.3-1.2-7.3
		c0-1.8,0-3.3-0.1-4.3c-0.1-1-0.4-1.8-0.7-2.2c-0.4-0.4-0.8-0.6-1.4-0.4c-0.6,0.2-1.4,0.6-2.3,1.4c-0.5,0.4-0.9,0.7-1.2,1
		c-0.3,0.3-0.6,0.6-0.8,1c-0.2,0.4-0.4,0.7-0.6,1.1c-0.1,0.4-0.2,0.8-0.3,1.4c-0.1,0.6-0.1,1.2-0.2,1.9c0,0.7,0,1.5,0,2.6
		c0,1,0,1.9,0,2.5c0,0.6-0.1,1.2-0.1,1.8c-0.1,0.5-0.1,0.9-0.2,1.2c-0.1,0.3-0.2,0.5-0.4,0.7c-0.2,0.2-0.4,0.3-0.6,0.4
		c-0.2,0-0.5,0.1-0.8,0.1c-0.6,0-1.2-0.1-1.7-0.3c-0.5-0.2-0.9-0.4-1-0.6c-0.3-0.5-0.7-3.3-1.2-8.3c-0.5-5.1-0.8-10.1-1.1-15.1
		C63.5,94.6,63.5,91.9,63.7,91.6z"/>
	<path class="st2" d="M90.4,104.2c4-3.4,8-3.2,11.9,0.7c1.2,1.1,2,2.3,2.5,3.4c0.5,1.1,0.8,2.3,0.8,3.7c0,1.2,0.2,2.4,0.7,3.6
		c0.4,1.2,1,2.1,1.7,2.8c0.7,0.7,1.4,1.1,2.2,1.1c0.6,0,0.9,0.3,0.9,1c0.1,0.7-0.1,1.4-0.6,2c-0.3,0.3-0.6,0.5-0.9,0.7
		c-0.4,0.2-1.1,0.1-1.9,0c-0.9-0.2-1.7-0.4-2.4-0.8c-1.1-0.6-2-0.8-2.7-0.8c-0.7,0-1.6,0.3-2.7,0.9c-2.1,1.1-4,1.6-5.7,1.4
		c-1.7-0.2-3.4-1.1-4.9-2.7c-0.5-0.6-1-1-1.3-1.4c-0.3-0.4-0.6-0.8-0.8-1.3c-0.2-0.4-0.4-1-0.4-1.5c-0.1-0.6-0.1-1.2-0.1-1.9
		c0-0.7,0.1-1.5,0.2-2.6c0.2-2.2,0.5-3.9,1-5.1C88.3,106.3,89.2,105.2,90.4,104.2z M99.3,110.9c-0.3-1.1-0.6-2-1-2.7
		c-0.4-0.7-0.9-1.3-1.3-1.6c-0.5-0.3-1-0.4-1.5-0.4c-0.5,0.1-1,0.3-1.5,0.7c-0.5,0.4-0.9,1.1-1.4,1.9c-0.4,0.8-0.8,1.8-1.1,3
		c-0.3,1-0.3,2-0.2,2.9c0.1,0.9,0.4,1.8,0.8,2.5c0.4,0.7,0.9,1.3,1.5,1.7c0.6,0.4,1.3,0.5,2.1,0.4c1.8-0.3,3-1.1,3.6-2.5
		C99.9,115.3,99.9,113.4,99.3,110.9z"/>
	<path class="st2" d="M118.9,91.2c0.3-0.3,0.6-0.5,0.9-0.5c0.3-0.1,0.6,0,0.9,0.2c0.3,0.2,0.5,0.5,0.8,0.8c0.2,0.4,0.5,0.9,0.7,1.4
		c0.2,0.6,0.3,1.2,0.4,2c0.1,0.5,0.1,0.9,0.2,1.2c0.1,0.3,0.1,0.6,0.2,0.9c0.1,0.3,0.2,0.5,0.3,0.7c0.1,0.2,0.2,0.3,0.4,0.5
		c0.2,0.2,0.4,0.3,0.6,0.3c0.2,0.1,0.5,0.1,0.8,0.1c0.4,0,0.7,0.1,1.1,0.1c0.4,0,0.8,0,1.4,0c1.7,0,2.9,0.1,3.6,0.4
		c0.7,0.3,1.1,0.8,1.3,1.5c0.1,0.2,0.1,0.4,0,0.6c0,0.2-0.1,0.3-0.1,0.5c0,0.1-0.1,0.3-0.3,0.4c-0.1,0.1-0.3,0.3-0.5,0.4
		c-0.2,0.1-0.4,0.2-0.7,0.3c-0.3,0.1-0.6,0.2-1,0.3c-0.3,0.1-0.8,0.2-1.2,0.3c-0.5,0.1-1,0.2-1.5,0.3c-0.5,0.1-1.2,0.2-1.9,0.3
		c-0.6,0.1-1.2,0.4-1.6,0.9c-0.5,0.5-0.8,1.2-0.9,1.9c-0.2,0.7-0.2,1.5-0.2,2.3c0,0.8,0.2,1.6,0.4,2.3c0.2,0.7,0.6,1.3,1.1,1.7
		c0.5,0.5,1.1,0.7,1.7,0.7c1,0,1.7,0.2,2.3,0.6c0.6,0.4,0.8,0.9,0.8,1.6c0,0.6-0.4,1.3-1.1,1.9c-0.8,0.8-1.8,1.2-3,1.2
		c-1.2,0-2.3-0.3-3.4-1c-1.1-0.7-1.8-1.6-2.2-2.8c-0.3-0.8-0.5-1.8-0.7-3.1c-0.2-1.3-0.3-2.5-0.3-3.5c0-0.6,0-1.1,0-1.5
		c0-0.4-0.1-0.7-0.2-1c-0.1-0.3-0.2-0.6-0.3-0.7c-0.1-0.2-0.3-0.3-0.5-0.4c-0.2-0.1-0.5-0.2-0.7-0.2c-0.3,0-0.6,0-1.1,0
		c-0.9,0-1.6-0.1-2.1-0.4c-0.5-0.3-0.7-0.7-0.7-1.2c0-0.5,0.3-1,0.8-1.5c0.5-0.5,1.2-1,2-1.3c1.1-0.5,1.9-1,2.2-1.6
		c0.4-0.6,0.6-1.7,0.6-3.2c0-1,0.1-2,0.2-2.9C118.5,91.9,118.6,91.4,118.9,91.2z"/>
	<path class="st2" d="M139.5,100.6c1.8-0.7,3.4-1,4.6-0.9c1.2,0.1,2.5,0.6,3.9,1.6c1.8,1.3,2.4,2.3,1.9,3.1
		c-0.6,0.8-2.2,1.2-4.9,1.2c-2.4,0-4,0.3-4.6,0.8c-0.4,0.4-0.2,0.7,0.5,1.1c0.8,0.4,2,0.6,3.6,0.7c1.3,0.1,2.4,0.4,3.5,0.8
		c1,0.5,1.9,1,2.5,1.7c0.6,0.7,1.1,1.5,1.4,2.4c0.3,0.9,0.4,1.8,0.3,2.8c-0.1,1-0.4,2-0.9,3c-0.5,1-1.3,2-2.2,3
		c-0.9,0.9-2.1,1.5-3.6,1.9c-1.5,0.4-3.2,0.4-4.8,0.2c-1.7-0.3-3.1-0.8-4.4-1.6c-1.6-1.1-2.5-2.1-2.6-3.2c0-0.8,0.3-1.3,1.2-1.6
		c1.2-0.4,2.6-0.2,4.4,0.7c0.3,0.2,0.6,0.3,1,0.6c0.7,0.4,1.4,0.6,2.1,0.6c0.7,0,1.4-0.1,2-0.4c0.6-0.3,1.1-0.8,1.5-1.4
		c0.4-0.6,0.6-1.3,0.6-2.1c0-0.6-0.2-1.1-0.5-1.4c-0.3-0.3-0.9-0.6-1.6-0.8c-0.8-0.2-1.9-0.4-3.5-0.5c-0.9-0.1-1.6-0.2-2.2-0.2
		c-0.5-0.1-1-0.2-1.5-0.3c-0.5-0.1-0.8-0.3-1.1-0.4c-0.2-0.1-0.4-0.3-0.6-0.6c-0.2-0.3-0.3-0.5-0.4-0.8c-0.1-0.3-0.1-0.7-0.2-1.2
		c-0.2-2,0.1-3.7,0.9-5.4C136.7,102.3,137.9,101.2,139.5,100.6z"/>
	<path class="st2" d="M153.8,106.1c0-1.2,0.2-2,0.5-2.5c0.3-0.5,0.8-0.7,1.6-0.7c0.7,0,1.4,0.4,1.9,1.2c0.6,0.8,1.1,2.2,1.7,4.1
		c0.6,2,1.2,3.4,1.8,4.2c0.6,0.8,1.3,1.3,2.2,1.4c0.9,0.1,1.6,0,2-0.4c0.5-0.4,0.8-1,1.1-2.1c0.2-0.7,0.3-1.5,0.3-2.3
		c0-0.8,0-1.5-0.2-1.9c-0.2-0.5-0.2-1.1-0.1-1.7c0.1-0.6,0.3-1.1,0.7-1.4c0.3-0.4,0.7-0.7,1.2-0.9c0.5-0.2,1-0.2,1.5,0
		c0.7,0.2,1.1,0.8,1.4,1.8c0.3,0.9,0.4,2.4,0.4,4.5c0,1.6-0.1,2.9-0.2,3.7c-0.2,0.9-0.4,1.6-0.8,2.2c-0.4,0.6-1,1.2-1.9,1.9
		c-1.9,1.5-3.7,2.2-5.4,2.2c-1.7,0-3.4-0.8-5-2.3c-1.5-1.4-2.6-3-3.4-5C154.2,110.4,153.8,108.3,153.8,106.1z"/>
	<path class="st2" d="M190.2,91.9c1.2-0.7,2.7-1.1,4.5-1.2c1.9-0.2,3.7-0.1,5.5,0.3c1.8,0.4,3.2,1,4.1,1.8c1.1,0.9,1.7,1.6,1.8,2
		c0.2,0.5,0,1-0.6,1.6c-0.6,0.6-1.1,0.8-1.7,0.8c-0.6,0-1.4-0.3-2.5-0.9c-0.8-0.4-1.7-0.7-2.7-0.8c-1-0.1-2-0.1-3,0
		c-1,0.1-1.9,0.4-2.7,0.7c-0.8,0.3-1.5,0.7-2.1,1.2c-0.5,0.5-0.8,1.1-0.8,1.7c0,0.9,0.4,1.5,1.2,2c0.8,0.5,2.3,1,4.4,1.4
		c1.6,0.4,3,0.7,4.1,1c1.1,0.3,2.1,0.7,3,1.1c0.9,0.4,1.6,0.9,2.1,1.4c0.6,0.5,1,1.1,1.4,1.7c0.4,0.6,0.7,1.4,1,2.3
		c0.7,2.1,0.8,4,0.4,5.5c-0.4,1.6-1.4,3.3-3,5.1c-0.8,0.8-1.7,1.5-2.9,2.2c-1.2,0.6-2.4,1.1-3.7,1.4c-1.3,0.3-2.7,0.5-4,0.6
		c-1.4,0.1-2.7,0-3.9-0.2c-1.2-0.2-2.3-0.5-3.2-1.1c-0.9-0.5-1.6-1.2-2-1.9c-0.3-0.5-0.5-1-0.5-1.5c-0.1-0.5-0.1-0.9,0-1.2
		c0.1-0.4,0.2-0.6,0.5-0.9c0.2-0.2,0.5-0.4,0.9-0.5c0.3-0.1,0.7-0.1,1.2,0.1c0.5,0.1,0.9,0.3,1.4,0.6c1,0.6,2.4,1.1,4.2,1.3
		c1.8,0.2,3.5,0.1,5.1-0.2c1.6-0.3,2.8-0.8,3.5-1.5c0.7-0.7,1.2-1.6,1.5-2.7c0.3-1.1,0.3-2.1,0.1-3.1c-0.2-1-0.6-1.8-1.2-2.3
		c-0.4-0.3-1.3-0.7-2.6-1.2c-1.4-0.5-2.8-0.9-4.2-1.2c-1.4-0.3-2.6-0.6-3.5-0.9c-0.9-0.3-1.8-0.5-2.5-0.9c-0.8-0.3-1.3-0.6-1.8-0.9
		c-0.4-0.3-0.8-0.7-1.1-1.1c-0.3-0.5-0.5-0.9-0.5-1.4c-0.1-0.5-0.1-1.1-0.1-1.8c0-2,0.4-3.6,1.2-4.9C187.3,94,188.5,92.9,190.2,91.9
		z"/>
	<path class="st2" d="M213.2,104.3c4-3.4,8-3.2,11.9,0.7c1.2,1.1,2,2.3,2.5,3.4c0.5,1.1,0.8,2.3,0.8,3.7c0,1.2,0.2,2.4,0.7,3.6
		c0.4,1.2,1,2.1,1.7,2.8c0.7,0.7,1.4,1.1,2.2,1.1c0.6,0,0.9,0.3,0.9,1c0.1,0.7-0.1,1.4-0.6,2c-0.3,0.3-0.6,0.5-0.9,0.7
		c-0.4,0.2-1.1,0.1-1.9,0c-0.9-0.2-1.7-0.4-2.4-0.8c-1.1-0.6-2-0.8-2.7-0.8c-0.7,0-1.6,0.3-2.7,0.9c-2.1,1.1-4,1.6-5.7,1.4
		c-1.7-0.2-3.4-1.1-4.9-2.7c-0.5-0.6-1-1-1.3-1.4c-0.3-0.4-0.6-0.8-0.8-1.3c-0.2-0.4-0.4-1-0.4-1.5c-0.1-0.6-0.1-1.2-0.1-1.9
		c0-0.7,0.1-1.5,0.2-2.6c0.2-2.2,0.5-3.9,1-5.1C211.2,106.4,212.1,105.3,213.2,104.3z M222.2,111c-0.3-1.1-0.6-2-1-2.7
		c-0.4-0.7-0.9-1.3-1.3-1.6c-0.5-0.3-1-0.4-1.5-0.4c-0.5,0.1-1,0.3-1.5,0.7c-0.5,0.4-0.9,1.1-1.4,1.9c-0.4,0.8-0.8,1.8-1.1,3
		c-0.3,1-0.3,2-0.2,2.9c0.1,0.9,0.4,1.8,0.8,2.5c0.4,0.7,0.9,1.3,1.5,1.7c0.6,0.4,1.3,0.5,2.1,0.4c1.8-0.3,3-1.1,3.6-2.5
		C222.8,115.4,222.8,113.5,222.2,111z"/>
	<path class="st2" d="M235.5,91.7c0.3-0.6,0.8-0.9,1.4-1.1c0.6-0.1,1.2,0,1.7,0.3c0.6,0.3,1,0.8,1.2,1.4c0.2,0.5,0.3,1.4,0.5,2.7
		c0.1,1.3,0.2,2.7,0.2,4.1c0,0.6,0,1.2,0,1.6c0,0.4,0,0.8,0.1,1.2c0,0.4,0.1,0.7,0.1,0.9c0,0.2,0.1,0.4,0.2,0.5
		c0.1,0.2,0.2,0.3,0.3,0.3c0.1,0,0.2,0.1,0.4,0.1c0.2,0,0.4,0,0.6-0.1c0.2,0,0.4-0.1,0.8-0.2c1.3-0.4,2.4-0.7,3.3-0.9
		c0.9-0.2,1.8-0.4,2.6-0.5c0.8-0.1,1.5-0.1,2,0c0.5,0.1,1,0.3,1.5,0.6c0.5,0.3,0.9,0.7,1.1,1.1c0.3,0.5,0.5,1.1,0.8,1.8
		c0.3,0.8,0.5,1.6,0.6,2.5c0.2,0.9,0.3,2,0.5,3.3c0.4,3.7,0.9,6.8,1.4,9.2c0.1,0.7,0.2,1.2,0.3,1.6c0,0.4,0,0.7,0,1
		c0,0.3-0.1,0.5-0.3,0.6c-0.2,0.1-0.4,0.2-0.6,0.3c-0.2,0.1-0.6,0.1-1,0.1c-1.5,0-2.7-0.9-3.6-2.7c-0.9-1.8-1.3-4.3-1.2-7.3
		c0-1.8,0-3.3-0.1-4.3c-0.1-1-0.4-1.8-0.7-2.2c-0.4-0.4-0.8-0.6-1.4-0.4c-0.6,0.2-1.4,0.6-2.3,1.4c-0.5,0.4-0.9,0.7-1.2,1
		c-0.3,0.3-0.6,0.6-0.8,1c-0.2,0.4-0.4,0.7-0.6,1.1c-0.1,0.4-0.2,0.8-0.3,1.4c-0.1,0.6-0.1,1.2-0.2,1.9c0,0.7,0,1.5,0,2.6
		c0,1,0,1.9,0,2.5c0,0.6-0.1,1.2-0.1,1.8c-0.1,0.5-0.1,0.9-0.2,1.2c-0.1,0.3-0.2,0.5-0.4,0.7c-0.2,0.2-0.4,0.3-0.6,0.4
		c-0.2,0-0.5,0.1-0.8,0.1c-0.6,0-1.2-0.1-1.7-0.3c-0.5-0.2-0.9-0.4-1-0.6c-0.3-0.5-0.7-3.3-1.2-8.3c-0.5-5.1-0.8-10.1-1.1-15.1
		C235.3,94.8,235.3,92.1,235.5,91.7z"/>
	<path class="st2" d="M262.2,104.4c4-3.4,8-3.2,11.9,0.7c1.2,1.1,2,2.3,2.5,3.4c0.5,1.1,0.8,2.3,0.8,3.7c0,1.2,0.2,2.4,0.7,3.6
		c0.4,1.2,1,2.1,1.7,2.8c0.7,0.7,1.4,1.1,2.2,1.1c0.6,0,0.9,0.3,0.9,1c0.1,0.7-0.1,1.4-0.6,2c-0.3,0.3-0.6,0.5-0.9,0.7
		c-0.4,0.2-1.1,0.1-1.9,0c-0.9-0.2-1.7-0.4-2.4-0.8c-1.1-0.6-2-0.8-2.7-0.8c-0.7,0-1.6,0.3-2.7,0.9c-2.1,1.1-4,1.6-5.7,1.4
		c-1.7-0.2-3.4-1.1-4.9-2.7c-0.5-0.6-1-1-1.3-1.4c-0.3-0.4-0.6-0.8-0.8-1.3c-0.2-0.4-0.4-1-0.4-1.5c-0.1-0.6-0.1-1.2-0.1-1.9
		c0-0.7,0.1-1.5,0.2-2.6c0.2-2.2,0.5-3.9,1-5.1C260.2,106.4,261,105.4,262.2,104.4z M271.1,111.1c-0.3-1.1-0.6-2-1-2.7
		c-0.4-0.7-0.9-1.3-1.3-1.6c-0.5-0.3-1-0.4-1.5-0.4c-0.5,0.1-1,0.3-1.5,0.7c-0.5,0.4-0.9,1.1-1.4,1.9c-0.4,0.8-0.8,1.8-1.1,3
		c-0.3,1-0.3,2-0.2,2.9c0.1,0.9,0.4,1.8,0.8,2.5c0.4,0.7,0.9,1.3,1.5,1.7c0.6,0.4,1.3,0.5,2.1,0.4c1.8-0.3,3-1.1,3.6-2.5
		C271.7,115.5,271.7,113.5,271.1,111.1z"/>
	<path class="st2" d="M284.7,102.1c-0.3-4.8-0.4-7.7-0.3-8.7c0.1-0.9,0.4-1.4,0.9-1.6c0.2-0.1,0.6-0.1,1.1-0.1
		c0.9,0,1.5,0.2,1.8,0.6c0.4,0.4,0.5,1,0.5,2c0,0.8,0,1.6,0.1,2.1c0,0.6,0.1,1.1,0.2,1.7c0.1,0.5,0.2,0.9,0.3,1.3
		c0.1,0.3,0.3,0.6,0.6,0.9c0.3,0.3,0.5,0.4,0.8,0.6c0.3,0.1,0.7,0.2,1.2,0.3c0.5,0.1,1,0.1,1.5,0.1c0.5,0,1.2-0.1,1.9-0.1
		c0.9-0.1,1.6-0.1,2.1-0.2c0.5,0,1,0,1.5,0c0.5,0,0.9,0.1,1.2,0.2c0.3,0.1,0.6,0.3,0.9,0.5c0.3,0.2,0.6,0.5,0.8,0.8
		c0.2,0.3,0.5,0.7,0.8,1.2c0.5,0.7,0.8,1.3,1,1.7c0.2,0.4,0.3,0.9,0.4,1.5c0,0.6,0,1.2-0.2,1.8c-0.2,0.6-0.4,1.4-0.8,2.6
		c-0.5,1.4-1.3,2.8-2.4,4.2c-1.1,1.4-2.3,2.6-3.6,3.6c-1.3,1-2.6,1.7-4,2.3c-1.4,0.5-2.6,0.6-3.6,0.4c-0.4-0.1-0.6-0.2-0.9-0.3
		c-0.2-0.1-0.5-0.2-0.7-0.4c-0.3-0.2-0.5-0.4-0.6-0.6c-0.2-0.2-0.3-0.5-0.5-1c-0.2-0.4-0.3-0.9-0.4-1.3c-0.1-0.4-0.2-1.1-0.4-1.9
		c-0.1-0.8-0.2-1.6-0.3-2.4c-0.1-0.8-0.2-1.8-0.3-3.1c-0.1-1.3-0.2-2.5-0.3-3.8C284.9,105.6,284.8,104,284.7,102.1z M298.7,107.2
		c0-1-0.4-1.6-1.4-1.9c-0.9-0.2-2,0-3.1,0.8c-0.6,0.4-1.2,1-1.7,1.6c-0.6,0.8-1,1.9-1.3,3.3c-0.3,1.4-0.5,2.6-0.4,3.7
		c0.1,1.1,0.4,1.6,0.9,1.6c0.8,0,1.7-0.6,2.8-1.6c1.1-1.1,2.1-2.4,2.9-3.8C298.3,109.4,298.7,108.2,298.7,107.2z"/>
	<path class="st2" d="M309.2,104.4c4-3.4,8-3.2,11.9,0.7c1.2,1.1,2,2.3,2.5,3.4c0.5,1.1,0.8,2.3,0.8,3.7c0,1.2,0.2,2.4,0.7,3.6
		c0.4,1.2,1,2.1,1.7,2.8c0.7,0.7,1.4,1.1,2.2,1.1c0.6,0,0.9,0.3,0.9,1c0.1,0.7-0.1,1.4-0.6,2c-0.3,0.3-0.6,0.5-0.9,0.7
		c-0.4,0.2-1.1,0.1-1.9,0c-0.9-0.2-1.7-0.4-2.4-0.8c-1.1-0.6-2-0.8-2.7-0.8c-0.7,0-1.6,0.3-2.7,0.9c-2.1,1.1-4,1.6-5.7,1.4
		c-1.7-0.2-3.4-1.1-4.9-2.7c-0.5-0.6-1-1-1.3-1.4c-0.3-0.4-0.6-0.8-0.8-1.3c-0.2-0.4-0.4-1-0.4-1.5c-0.1-0.6-0.1-1.2-0.1-1.9
		c0-0.7,0.1-1.5,0.2-2.6c0.2-2.2,0.5-3.9,1-5.1C307.2,106.5,308.1,105.4,309.2,104.4z M318.2,111.1c-0.3-1.1-0.6-2-1-2.7
		c-0.4-0.7-0.9-1.3-1.3-1.6c-0.5-0.3-1-0.4-1.5-0.4c-0.5,0.1-1,0.3-1.5,0.7c-0.5,0.4-0.9,1.1-1.4,1.9c-0.4,0.8-0.8,1.8-1.1,3
		c-0.3,1-0.3,2-0.2,2.9c0.1,0.9,0.4,1.8,0.8,2.5c0.4,0.7,0.9,1.3,1.5,1.7c0.6,0.4,1.3,0.5,2.1,0.4c1.8-0.3,3-1.1,3.6-2.5
		C318.8,115.5,318.8,113.6,318.2,111.1z"/>
	<path class="st2" d="M337.7,91.4c0.3-0.3,0.6-0.5,0.9-0.5c0.3-0.1,0.6,0,0.9,0.2c0.3,0.2,0.5,0.5,0.8,0.8c0.2,0.4,0.5,0.9,0.7,1.4
		c0.2,0.6,0.3,1.2,0.4,2c0.1,0.5,0.1,0.9,0.2,1.2c0.1,0.3,0.1,0.6,0.2,0.9c0.1,0.3,0.2,0.5,0.3,0.7c0.1,0.2,0.2,0.3,0.4,0.5
		c0.2,0.2,0.4,0.3,0.6,0.3c0.2,0.1,0.5,0.1,0.8,0.2c0.4,0,0.7,0.1,1.1,0.1c0.4,0,0.8,0,1.4,0c1.7,0,2.9,0.1,3.6,0.4
		c0.7,0.3,1.1,0.8,1.3,1.5c0.1,0.2,0.1,0.4,0,0.6c0,0.2-0.1,0.3-0.1,0.5c0,0.1-0.1,0.3-0.3,0.4c-0.1,0.1-0.3,0.3-0.5,0.4
		c-0.2,0.1-0.4,0.2-0.7,0.3c-0.3,0.1-0.6,0.2-1,0.3c-0.3,0.1-0.8,0.2-1.2,0.3c-0.5,0.1-1,0.2-1.5,0.3c-0.5,0.1-1.2,0.2-1.9,0.3
		c-0.6,0.1-1.2,0.4-1.6,0.9c-0.5,0.5-0.8,1.2-0.9,1.9c-0.2,0.7-0.2,1.5-0.2,2.3c0,0.8,0.2,1.6,0.4,2.3c0.2,0.7,0.6,1.3,1.1,1.7
		c0.5,0.5,1.1,0.7,1.7,0.7c1,0,1.7,0.2,2.3,0.6c0.6,0.4,0.8,0.9,0.8,1.6c0,0.6-0.4,1.3-1.1,1.9c-0.8,0.8-1.8,1.2-3,1.2
		c-1.2,0-2.3-0.3-3.4-1c-1.1-0.7-1.8-1.6-2.2-2.8c-0.3-0.8-0.5-1.8-0.7-3.1c-0.2-1.3-0.3-2.5-0.3-3.5c0-0.6,0-1.1,0-1.5
		c0-0.4-0.1-0.7-0.2-1c-0.1-0.3-0.2-0.6-0.3-0.7c-0.1-0.2-0.3-0.3-0.5-0.4c-0.2-0.1-0.5-0.2-0.7-0.2c-0.3,0-0.6,0-1.1,0
		c-0.9,0-1.6-0.1-2.1-0.4c-0.5-0.3-0.7-0.7-0.7-1.2c0-0.5,0.3-1,0.8-1.5c0.5-0.5,1.2-1,2-1.3c1.1-0.5,1.9-1,2.2-1.6
		c0.4-0.6,0.6-1.7,0.6-3.2c0-1,0.1-2,0.2-2.9C337.3,92.1,337.5,91.6,337.7,91.4z"/>
	<path class="st2" d="M353.6,91.4c1.2-1.5,2.2-1.6,2.8-0.6c0.5,0.8,0.7,2.2,0.7,4.3c0,0.5,0,0.9,0,1.1c0,0.3,0,0.6,0,0.9
		c0,0.3,0.1,0.6,0.1,0.7c0,0.2,0.1,0.3,0.2,0.5c0.1,0.2,0.2,0.3,0.3,0.4c0.1,0.1,0.2,0.1,0.4,0.2c0.2,0.1,0.4,0.1,0.5,0.2
		c0.2,0,0.4,0,0.7,0.1c0.3,0,0.6,0,0.9,0c0.3,0,0.6,0,1.1,0c1.6,0,2.7,0.1,3.3,0.3c0.6,0.3,1.1,0.8,1.2,1.5c0.1,0.7,0,1.2-0.3,1.5
		c-0.4,0.3-1.1,0.4-2.1,0.4c-1.8,0-3,0.6-3.4,1.8c-0.4,1.1-0.2,2.3,0.7,3.7c0.9,1.5,2.3,2.7,4.1,3.4c0.6,0.2,1.2,0.4,1.8,0.5
		c1.3,0.2,2.3,0.6,3,1c0.7,0.4,1,0.9,1,1.5c0,0.5-0.1,0.9-0.4,1.1c-0.3,0.2-0.9,0.3-1.7,0.4c-0.8,0-2,0-3.6-0.2
		c-2.6-0.3-4.1-0.3-4.6-0.2c-0.5,0.1-0.7,0.5-0.7,1c0,0.2,0.1,0.7,0.2,1.3c0.1,0.7,0.1,1.3,0.1,1.8c-0.1,0.6-0.2,1-0.5,1.4
		c-0.3,0.4-0.6,0.6-0.9,0.8c-0.3,0.2-0.7,0.2-1.1,0.1c-0.4-0.1-0.8-0.4-1.2-0.8c-0.4-0.4-0.8-2.1-1.3-5.1c-0.5-3-0.9-6.3-1.3-10
		c-0.5-5.4-0.8-9.1-0.7-11.1C352.7,93.4,353,92.1,353.6,91.4z"/>
	<path class="st2" d="M371.9,106.3c0-1.2,0.2-2,0.5-2.5c0.3-0.5,0.8-0.7,1.6-0.7c0.7,0,1.4,0.4,1.9,1.2c0.6,0.8,1.1,2.2,1.7,4.1
		c0.6,2,1.2,3.4,1.8,4.2c0.6,0.8,1.3,1.3,2.2,1.4c0.9,0.1,1.6,0,2-0.4c0.5-0.4,0.8-1,1.1-2.1c0.2-0.7,0.3-1.5,0.3-2.3
		c0-0.8,0-1.5-0.2-1.9c-0.2-0.5-0.2-1.1-0.1-1.7c0.1-0.6,0.3-1.1,0.7-1.4c0.3-0.4,0.7-0.7,1.2-0.9c0.5-0.2,1-0.2,1.5,0
		c0.7,0.2,1.1,0.8,1.4,1.8c0.3,0.9,0.4,2.4,0.4,4.5c0,1.6-0.1,2.9-0.2,3.7c-0.2,0.9-0.4,1.6-0.8,2.2c-0.4,0.6-1,1.2-1.9,1.9
		c-1.9,1.5-3.7,2.2-5.4,2.2c-1.7,0-3.4-0.8-5-2.3c-1.5-1.4-2.6-3-3.4-5C372.3,110.6,371.9,108.5,371.9,106.3z"/>
</g>
</svg>
